<?xml version="1.0" encoding="utf-8"?>
<!-- Generator: Adobe Illustrator 20.0.0, SVG Export Plug-In . SVG Version: 6.00 Build 0)  -->
<svg version="1.1" xmlns="http://www.w3.org/2000/svg" xmlns:xlink="http://www.w3.org/1999/xlink" x="0px" y="0px"
	 viewBox="0 0 3980.4 811.5" style="enable-background:new 0 0 3980.4 811.5;" xml:space="preserve">
<style type="text/css">
	.st0{fill:#FFFFFF;}
</style>
<g>
	<polygon class="st0" points="174.1,308.7 138.6,308.7 71.1,494 192.8,494 204.7,461.3 118.6,461.3 	"/>
	<polygon class="st0" points="337.7,308.7 267.2,386.1 252.3,308.7 212.2,308.7 236.5,420.5 209.8,494 245.3,494 271.4,422.2 
		378.5,308.7 	"/>
	<polygon class="st0" points="460.7,494 528.1,308.7 494,308.7 448.1,434.8 420.4,308.7 384.9,308.7 317.5,494 351.6,494 
		397.5,367.7 425.2,494 	"/>
	<path class="st0" d="M889.3,526.5c71.1-76.9,124.5-161.7,150.5-238.8c26.5-78.5,21.3-140-14.6-173.1
		c-35.9-33.1-97.6-33.4-173.8-0.8c-3,1.3-6.1,2.7-9.1,4.1c-0.9-3.2-1.4-6.6-1.3-10.3c0.1-6.3,1.1-12.4,2.8-18.4
		c2.3-8.3,5-16.5,7.6-24.8c0.8-2.5,1.8-4.9,2.7-7.3c-0.1,0-0.2-0.1-0.4-0.1c-1,2.7-1.9,5.4-2.9,8c-3.2,8.5-6.7,17-10.9,25.1
		c-2.5,4.8-5.2,9.4-8.6,13.6c-6.7,8.4-15.5,12.5-26.3,12.2c-7.8-0.2-15.3-1.9-22.7-4c-3.8-1.1-7.6-2.2-11.3-3.4
		c-2.4-0.8-4.8-1.7-7.1-2.5c-0.1,0.2-0.1,0.4-0.2,0.6c0.2,0.1,0.5,0.2,0.7,0.3c7.4,2.9,14.7,5.9,21.8,9.4c4.8,2.4,9.4,5,13.7,8.2
		c4,2.9,7.1,6.3,9.4,10.1c-62.1,34.2-126.1,85.6-183.9,148.2c-7.1,7.7-14.2,15.7-21.2,23.9c-6.1,1.3-12.2,3.2-18,5.7
		c-12.1,5.1-23.4,12.1-33.6,20.8c-10.2,8.7-19.4,18.9-27.4,30.5c-8,11.6-14.4,24-19.1,36.9c-4.8,13.1-7.4,25.7-7.9,37.3
		c-0.3,8.2,0.5,15.8,2.3,22.6c-40.1,80.9-51.9,150.8-34.6,198c-3.1,0.8-6.3,1.2-9.8,1.1c-7.8-0.2-15.3-1.9-22.7-4
		c-3.8-1.1-7.6-2.2-11.3-3.4c-2.4-0.8-4.8-1.7-7.1-2.5c-0.1,0.2-0.1,0.4-0.2,0.6c0.2,0.1,0.5,0.2,0.7,0.3c7.4,2.9,14.7,5.9,21.8,9.4
		c4.8,2.4,9.4,5,13.7,8.2c9,6.7,13.9,15.4,13.7,26.8c-0.1,7.3-1.5,14.5-3.5,21.5c-2.3,7.9-4.9,15.8-7.5,23.7
		c-0.6,1.9-1.4,3.8-2.1,5.8c0.1,0.1,0.3,0.1,0.4,0.2c1.4-3.9,2.8-7.7,4.2-11.6c2.7-7,5.7-13.9,9-20.7c2.3-4.7,5-9.2,8.1-13.4
		c3.4-4.5,7.2-7.9,11.7-10.2c1.4,1.5,2.9,3,4.4,4.4c18.1,16.7,42.8,25.1,72.5,25.1c29.3,0,63.5-8.1,101.2-24.2
		c54.1-23.2,111.2-61,165.5-109.4c-0.3,6.7-1.6,13.2-3.4,19.5c-2.3,7.9-4.9,15.8-7.5,23.7c-0.6,1.9-1.4,3.8-2.1,5.8
		c0.1,0.1,0.3,0.1,0.4,0.2c1.4-3.9,2.8-7.7,4.2-11.6c2.7-7,5.7-13.9,9-20.7c2.3-4.7,5-9.2,8.1-13.4c6.6-8.9,15.3-13.6,26.5-13.5
		c7.4,0.1,14.6,1.5,21.7,3.5c6.8,1.9,13.4,4.2,20.1,6.3c0.2,0.1,0.4,0,0.6,0.1c-0.1-0.2-0.1-0.3-0.1-0.3c-0.7-0.3-1.4-0.7-2.2-0.9
		c-7.2-2.8-14.2-5.8-21.1-9.2c-4.9-2.4-9.6-5.2-13.9-8.5c-4-3-7-6.5-9.2-10.4C869.9,547,879.7,536.9,889.3,526.5z M808.1,122.7
		c11,0.7,19.7-3.4,26.3-12.2c-0.2,5.3,0.4,10.2,2.5,14.8c2.1,4.6,5.5,8.3,9.7,11.5c-11-0.6-19.7,3.4-26.2,12
		C821,138,817,129.3,808.1,122.7z M471.4,692.5c0.6-10.8-3.4-19.5-12.3-26.1c11,0.7,19.7-3.4,26.3-12.2c-0.2,5.3,0.4,10.2,2.5,14.8
		c2.1,4.6,5.5,8.3,9.7,11.5C486.6,679.8,478,683.8,471.4,692.5z M861.9,569.7c-11-0.6-19.7,3.4-26.2,12c0.6-10.8-3.4-19.5-12.3-26.1
		c11,0.7,19.7-3.4,26.3-12.2c-0.2,5.3,0.4,10.2,2.5,14.8C854.4,562.8,857.7,566.5,861.9,569.7z M856.4,544.8
		c-0.1-1.4-0.2-2.9-0.2-4.4c0.1-6.3,1.1-12.4,2.8-18.4c2.3-8.3,5-16.5,7.6-24.8c0.8-2.5,1.8-4.9,2.7-7.3c-0.1,0-0.2-0.1-0.4-0.1
		c-1,2.7-1.9,5.4-2.9,8c-3.2,8.5-6.7,17-10.9,25.1c-2.5,4.8-5.2,9.4-8.6,13.6c-6.7,8.4-15.5,12.5-26.3,12.2
		c-7.8-0.2-15.3-1.9-22.7-4c-3.8-1.1-7.6-2.2-11.3-3.4c-2.4-0.8-4.8-1.7-7.1-2.5c-0.1,0.2-0.1,0.4-0.2,0.6c0.2,0.1,0.5,0.2,0.7,0.3
		c7.4,2.9,14.7,5.9,21.8,9.4c4.8,2.4,9.4,5,13.7,8.2c5.8,4.2,9.8,9.3,11.9,15.4c-55.1,50-113.3,89-168.2,112.5
		c-71.5,30.6-128.7,31.2-161.3,1.7c0.8,0,1.5-0.1,2.3-0.1c7.4,0.1,14.6,1.5,21.7,3.5c6.8,1.9,13.4,4.2,20.1,6.3
		c0.2,0.1,0.4,0,0.6,0.1c-0.1-0.2-0.1-0.3-0.1-0.3c-0.7-0.3-1.4-0.7-2.2-0.9c-7.2-2.8-14.2-5.8-21.1-9.2c-4.9-2.4-9.6-5.2-13.9-8.5
		c-8.8-6.7-13.3-15.5-13-26.7c0.1-6.3,1.1-12.4,2.8-18.4c2.3-8.3,5-16.5,7.6-24.8c0.8-2.5,1.8-4.9,2.7-7.3c-0.1,0-0.2-0.1-0.4-0.1
		c-1,2.7-1.9,5.4-2.9,8c-3.2,8.5-6.7,17-10.9,25.1c-2.5,4.8-5.2,9.4-8.6,13.6c-1.9,2.4-4.1,4.5-6.3,6.2
		c-14.8-42.6-4.4-106.5,30.1-179.5c4,6.7,9.5,12.2,16.6,16.4c8.6,5.2,19.7,7.8,32.8,7.8c10.5,0,21-1.8,31.1-5.4
		c10-3.6,19.6-8.8,28.5-15.4c8.8-6.6,16.9-14.5,24-23.6c7.1-9.1,13-19.2,17.6-30.1l1.6-3.8h-34.9l-0.7,1.6
		c-2.9,6.4-6.4,12.4-10.5,17.9c-4,5.5-8.5,10.4-13.5,14.5c-5,4.1-10.3,7.3-16,9.6c-5.6,2.3-11.6,3.4-17.8,3.4
		c-8.4,0-15-1.8-19.6-5.2c-4.7-3.5-7.8-8.1-9.4-14c-1.7-6.1-2-13.1-1-21c1-8,3-16.2,6.1-24.6c3-8.4,7-16.7,11.9-24.7
		c4.8-8,10.5-15.2,16.7-21.5c6.2-6.2,13.2-11.2,20.9-15c7.6-3.7,15.7-5.5,24.3-5.5c5.8,0,10.5,0.8,14.2,2.4c3.5,1.6,6.4,3.7,8.4,6.5
		c2,2.8,3.4,6.2,3.9,10.1c0.6,4.1,0.6,8.7,0,13.6l-0.4,3.1h34.9l0.5-2c2.7-10.1,3.4-19.2,2.1-27.1c-1.3-8-4.4-15-9.1-20.6
		c-4.8-5.6-11.1-10-18.9-12.9c-7.7-2.9-16.5-4.3-26.3-4.3c-1.2,0-2.3,0-3.5,0.1c4.3-4.9,8.7-9.7,13-14.4
		c56.6-61.3,119-111.6,179.6-145.2c0.3,2,0.5,4.1,0.5,6.3c-0.1,7.3-1.5,14.5-3.5,21.5c-2.3,7.9-4.9,15.8-7.5,23.7
		c-0.6,1.9-1.4,3.8-2.1,5.8c0.1,0.1,0.3,0.1,0.4,0.2c1.4-3.9,2.8-7.7,4.2-11.6c2.7-7,5.7-13.9,9-20.7c2.3-4.7,5-9.2,8.1-13.4
		c6.6-8.9,15.3-13.6,26.5-13.5c7.4,0.1,14.6,1.5,21.7,3.5c6.8,1.9,13.4,4.2,20.1,6.3c0.2,0.1,0.4,0,0.6,0.1
		c-0.1-0.2-0.1-0.3-0.1-0.3c-0.7-0.3-1.4-0.7-2.2-0.9c-7.2-2.8-14.2-5.8-21.1-9.2c-4.9-2.4-9.6-5.2-13.9-8.5c-2.6-2-4.8-4.2-6.6-6.6
		c2.8-1.3,5.6-2.5,8.4-3.7c71.9-30.8,129.4-31.2,161.9-1.2c32.5,30,36.6,87.4,11.6,161.5c-25.5,75.6-78.1,159-148.1,234.8
		C873,527.9,864.7,536.5,856.4,544.8z"/>
</g>
<path class="st0" d="M827.9,310.1c-7.3-3.6-16-6-26.7-7.5c-7.5-1.1-15.7-1.2-24.3-0.4c-8.7,0.8-17.4,2.9-25.7,6.1
	c-8.5,3.3-16.6,8-24,14.1c-7.6,6.3-14,14.2-19,23.7c-5.4,10.2-7.6,18.9-6.8,26.7c0.8,7.9,3.8,14.7,8.9,20.4
	c4.6,5,10.5,9.3,17.7,12.8c0.3,0.1,0.5,0.2,0.8,0.4c0.9,14.9,13.4,26.7,28.6,26.7c6.7,0,12.9-2.3,17.8-6.1c1.5,1,2.9,2.1,4.2,3.2
	c2.5,2.2,3.9,4.7,4.5,7.7c0.3,1.7,0.2,5.5-3.5,12.5c-3.4,6.4-7.6,11.6-12.5,15.3c-5.2,4-10.7,7.1-16.4,9.1
	c-5.7,2.1-11.5,3.4-17.2,3.8c-5.9,0.4-11.2,0.3-15.7-0.3c-7.7-1.1-29.5-3.8-35.1-18.8c-8.5,0-30.9,0.3-36.3,0.1
	c0,18.3,20,34.3,39.5,41.5c19.3,7.2,33,6.5,37.8,6.5c3.5,0,7.2-0.2,10.9-0.5c9-0.8,18-2.9,26.9-6.3c8.9-3.4,17.4-8.3,25.3-14.6
	c8.2-6.5,15.2-15,20.6-25.3c5.4-10.2,7.8-19.1,7.3-27.1c-0.6-8.2-3.4-15.4-8.6-21.3c-4.5-5.2-10.4-9.7-17.5-13.3
	c-1.4-0.7-2.8-1.4-4.3-2.1c-3.4-12-14.5-20.8-27.6-20.8c-4.9,0-9.5,1.2-13.6,3.4c-2.4-1.4-4.6-2.8-6.4-4.4c-2.5-2.1-3.9-4.4-4.5-7.2
	c-0.3-1.5-0.3-4.8,3.1-11.3c3.2-6,7.1-10.8,11.6-14.3c4.8-3.7,9.9-6.5,15.2-8.4c5.4-1.9,10.9-3,16.2-3.3c5.6-0.3,10.5-0.2,14.7,0.4
	c6.9,1,13,2.2,17.6,5c4.3,2.6,7.3,5.9,9.7,11.9c6.9,0,23.9,0,31.7,0C852.5,329.1,842.4,317.2,827.9,310.1z M757.3,392.5
	c6.7,0,12.1,5.4,12.1,12.1c0,6.7-5.4,12.1-12.1,12.1c-6.7,0-12.1-5.4-12.1-12.1C745.1,397.9,750.6,392.5,757.3,392.5z"/>
<g>
	<path class="st0" d="M88.6,539.8h6.7v31.7h15.1v5.7H88.6V539.8z"/>
	<path class="st0" d="M129,577.1l-0.4-3.4h-0.2c-1.5,2.1-4.3,4-8,4c-5.3,0-8-3.8-8-7.7c0-6.5,5.7-10,15.8-10v-0.6
		c0-2.2-0.6-6.2-6-6.2c-2.4,0-5,0.8-6.8,2l-1.1-3.2c2.2-1.4,5.3-2.4,8.6-2.4c8,0,10,5.6,10,11v10c0,2.3,0.1,4.6,0.4,6.4H129z
		 M128.3,563.4c-5.2-0.1-11.1,0.8-11.1,6c0,3.2,2.1,4.7,4.5,4.7c3.4,0,5.6-2.2,6.4-4.5c0.2-0.5,0.3-1.1,0.3-1.6V563.4z"/>
	<path class="st0" d="M139.3,577.1c0.1-1.8,0.2-4.5,0.2-6.9v-32.4h4.7v16.9h0.1c1.7-3,4.7-4.9,9-4.9c6.5,0,11.1,5.5,11.1,13.7
		c0,9.6-5.9,14.4-11.8,14.4c-3.8,0-6.8-1.5-8.8-5h-0.2l-0.2,4.4H139.3z M144.2,566.4c0,0.6,0.1,1.2,0.2,1.8c0.9,3.4,3.7,5.7,7.2,5.7
		c5,0,8-4.2,8-10.3c0-5.4-2.7-10-7.8-10c-3.3,0-6.3,2.3-7.3,6c-0.1,0.6-0.3,1.2-0.3,2V566.4z"/>
	<path class="st0" d="M193.1,563.5c0,9.9-6.7,14.2-13.1,14.2c-7.1,0-12.6-5.3-12.6-13.8c0-9,5.8-14.2,13-14.2
		C188,549.7,193.1,555.3,193.1,563.5z M172.3,563.8c0,5.9,3.3,10.3,8,10.3c4.6,0,8-4.4,8-10.4c0-4.5-2.2-10.3-7.9-10.3
		C174.7,553.3,172.3,558.7,172.3,563.8z"/>
	<path class="st0" d="M198.1,558.7c0-3.2-0.1-5.9-0.2-8.4h4.2l0.2,5.3h0.2c1.2-3.6,4.1-5.9,7.3-5.9c0.5,0,0.9,0.1,1.4,0.2v4.6
		c-0.5-0.1-1-0.2-1.6-0.2c-3.4,0-5.8,2.6-6.4,6.3c-0.1,0.7-0.2,1.4-0.2,2.3v14.3h-4.7V558.7z"/>
	<path class="st0" d="M229.1,577.1l-0.4-3.4h-0.2c-1.5,2.1-4.3,4-8,4c-5.3,0-8-3.8-8-7.7c0-6.5,5.7-10,15.8-10v-0.6
		c0-2.2-0.6-6.2-6-6.2c-2.4,0-5,0.8-6.8,2l-1.1-3.2c2.2-1.4,5.3-2.4,8.6-2.4c8,0,10,5.6,10,11v10c0,2.3,0.1,4.6,0.4,6.4H229.1z
		 M228.3,563.4c-5.2-0.1-11.1,0.8-11.1,6c0,3.2,2.1,4.7,4.5,4.7c3.4,0,5.6-2.2,6.4-4.5c0.2-0.5,0.3-1.1,0.3-1.6V563.4z"/>
	<path class="st0" d="M245.1,542.6v7.7h6.8v3.7h-6.8v14.5c0,3.3,0.9,5.2,3.6,5.2c1.2,0,2.2-0.2,2.8-0.3l0.2,3.7
		c-0.9,0.4-2.4,0.7-4.2,0.7c-2.2,0-4-0.7-5.2-2.1c-1.4-1.4-1.8-3.8-1.8-7V554h-4.1v-3.7h4.1v-6.4L245.1,542.6z"/>
	<path class="st0" d="M279.7,563.5c0,9.9-6.7,14.2-13.1,14.2c-7.1,0-12.6-5.3-12.6-13.8c0-9,5.8-14.2,13-14.2
		C274.6,549.7,279.7,555.3,279.7,563.5z M258.9,563.8c0,5.9,3.3,10.3,8,10.3c4.6,0,8-4.4,8-10.4c0-4.5-2.2-10.3-7.9-10.3
		C261.3,553.3,258.9,558.7,258.9,563.8z"/>
	<path class="st0" d="M284.7,558.7c0-3.2-0.1-5.9-0.2-8.4h4.2l0.2,5.3h0.2c1.2-3.6,4.1-5.9,7.3-5.9c0.5,0,0.9,0.1,1.4,0.2v4.6
		c-0.5-0.1-1-0.2-1.6-0.2c-3.4,0-5.8,2.6-6.4,6.3c-0.1,0.7-0.2,1.4-0.2,2.3v14.3h-4.7V558.7z"/>
	<path class="st0" d="M304.5,550.3l5.8,15.9c0.6,1.8,1.3,3.9,1.7,5.5h0.1c0.5-1.6,1-3.7,1.7-5.6l5.2-15.7h5.1l-7.2,19.1
		c-3.4,9.2-5.8,13.9-9,16.8c-2.3,2.1-4.7,2.9-5.9,3.2l-1.2-4.1c1.2-0.4,2.8-1.2,4.2-2.4c1.3-1.1,2.9-2.9,4-5.4
		c0.2-0.5,0.4-0.9,0.4-1.2c0-0.3-0.1-0.7-0.3-1.3l-9.7-24.7H304.5z"/>
	<path class="st0" d="M361.5,563.5c0,9.9-6.7,14.2-13.1,14.2c-7.1,0-12.6-5.3-12.6-13.8c0-9,5.8-14.2,13-14.2
		C356.4,549.7,361.5,555.3,361.5,563.5z M340.6,563.8c0,5.9,3.3,10.3,8,10.3c4.6,0,8-4.4,8-10.4c0-4.5-2.2-10.3-7.9-10.3
		C343,553.3,340.6,558.7,340.6,563.8z"/>
	<path class="st0" d="M366.9,577.1V554h-3.7v-3.7h3.7V549c0-3.8,0.8-7.2,3-9.4c1.8-1.8,4.2-2.5,6.4-2.5c1.7,0,3.2,0.4,4.1,0.8
		l-0.7,3.8c-0.7-0.3-1.7-0.6-3-0.6c-4.1,0-5.1,3.7-5.1,7.8v1.4h6.4v3.7h-6.4v23.1H366.9z"/>
	<path class="st0" d="M88.1,631.4c1.4,0.9,3.9,1.9,6.3,1.9c3.5,0,5.1-1.8,5.1-4c0-2.3-1.4-3.6-4.9-4.9c-4.7-1.7-7-4.4-7-7.6
		c0-4.3,3.4-7.9,9.1-7.9c2.7,0,5,0.8,6.5,1.7l-1.2,3.5c-1-0.7-2.9-1.6-5.4-1.6c-2.8,0-4.4,1.7-4.4,3.7c0,2.2,1.6,3.2,5,4.5
		c4.6,1.8,6.9,4.1,6.9,8.1c0,4.7-3.6,8-9.8,8c-2.9,0-5.5-0.7-7.4-1.8L88.1,631.4z"/>
	<path class="st0" d="M115.7,636.4v-15.6l-11.6-21.8h7.6l4.4,9.6c1.3,2.8,2.2,4.9,3.2,7.4h0.1c0.9-2.4,2-4.7,3.2-7.4l4.4-9.6h7.6
		l-12.2,21.6v15.7H115.7z"/>
	<path class="st0" d="M137.4,636.4v-37.4h7.6l9.5,16c2.4,4.2,4.6,8.5,6.3,12.5h0.1c-0.4-5-0.6-9.8-0.6-15.5v-13h6.2v37.4h-6.9
		l-9.6-16.4c-2.3-4.1-4.8-8.7-6.6-12.9l-0.2,0.1c0.3,4.8,0.3,9.8,0.3,15.9v13.4H137.4z"/>
	<path class="st0" d="M178.9,601.9v7.7h6.8v3.7h-6.8v14.5c0,3.3,0.9,5.2,3.6,5.2c1.3,0,2.2-0.2,2.8-0.3l0.2,3.7
		c-0.9,0.4-2.4,0.7-4.2,0.7c-2.2,0-4-0.7-5.2-2.1c-1.4-1.4-1.8-3.8-1.8-7v-14.6h-4.1v-3.7h4.1v-6.4L178.9,601.9z"/>
	<path class="st0" d="M190,597.1h4.8v16.7h0.1c0.8-1.4,2-2.6,3.4-3.4c1.4-0.8,3.1-1.4,4.9-1.4c3.5,0,9.2,2.2,9.2,11.5v16h-4.8V621
		c0-4.3-1.6-8-6.1-8c-3.1,0-5.5,2.2-6.4,4.9c-0.3,0.7-0.3,1.4-0.3,2.3v16.2H190V597.1z"/>
	<path class="st0" d="M221.8,623.9c0.1,6.6,4.2,9.3,9,9.3c3.4,0,5.5-0.6,7.3-1.4l0.8,3.5c-1.7,0.8-4.6,1.7-8.7,1.7
		c-8.1,0-12.9-5.4-12.9-13.5c0-8.1,4.7-14.5,12.3-14.5c8.6,0,10.9,7.7,10.9,12.6c0,1-0.1,1.8-0.2,2.3H221.8z M235.8,620.4
		c0.1-3.1-1.2-7.9-6.6-7.9c-4.8,0-7,4.5-7.3,7.9H235.8z"/>
	<path class="st0" d="M251,601.9v7.7h6.8v3.7H251v14.5c0,3.3,0.9,5.2,3.6,5.2c1.2,0,2.2-0.2,2.8-0.3l0.2,3.7
		c-0.9,0.4-2.4,0.7-4.2,0.7c-2.2,0-4-0.7-5.2-2.1c-1.4-1.4-1.8-3.8-1.8-7v-14.6h-4.1v-3.7h4.1v-6.4L251,601.9z"/>
	<path class="st0" d="M267.5,602.1c0.1,1.7-1.1,3-3,3c-1.7,0-2.9-1.3-2.9-3c0-1.7,1.3-3,3-3C266.3,599,267.5,600.3,267.5,602.1z
		 M262.1,636.4v-26.8h4.8v26.8H262.1z"/>
	<path class="st0" d="M292.5,635.4c-1.3,0.7-4,1.6-7.6,1.6c-7.9,0-13.1-5.5-13.1-13.7c0-8.3,5.5-14.2,14.1-14.2
		c2.8,0,5.3,0.7,6.6,1.4l-1.1,3.8c-1.1-0.7-2.9-1.3-5.5-1.3c-6,0-9.3,4.5-9.3,10.1c0,6.2,3.9,10,9.1,10c2.7,0,4.5-0.7,5.9-1.3
		L292.5,635.4z"/>
	<path class="st0" d="M114.8,694.6c-1.6,0.8-5.1,1.7-9.5,1.7c-11.6,0-18.7-7.4-18.7-18.8c0-12.3,8.4-19.7,19.6-19.7
		c4.4,0,7.6,0.9,8.9,1.7l-1.5,5.4c-1.7-0.8-4.1-1.4-7.2-1.4c-7.4,0-12.8,4.8-12.8,13.7c0,8.2,4.7,13.5,12.8,13.5
		c2.7,0,5.5-0.6,7.3-1.4L114.8,694.6z"/>
	<path class="st0" d="M143.4,682.1c0,9.9-6.7,14.2-13.1,14.2c-7.1,0-12.6-5.3-12.6-13.8c0-9,5.8-14.2,13-14.2
		C138.3,668.3,143.4,673.9,143.4,682.1z M122.5,682.4c0,5.9,3.3,10.3,8,10.3c4.6,0,8-4.4,8-10.4c0-4.5-2.2-10.3-7.9-10.3
		C124.9,671.9,122.5,677.3,122.5,682.4z"/>
	<path class="st0" d="M147.7,690.7c1.4,0.9,3.9,1.9,6.3,1.9c3.5,0,5.1-1.8,5.1-4c0-2.3-1.4-3.6-4.9-4.9c-4.7-1.7-7-4.4-7-7.6
		c0-4.3,3.4-7.9,9.1-7.9c2.7,0,5,0.8,6.5,1.7l-1.2,3.5c-1-0.7-2.9-1.6-5.4-1.6c-2.8,0-4.4,1.7-4.4,3.7c0,2.2,1.6,3.2,5,4.5
		c4.6,1.8,6.9,4.1,6.9,8.1c0,4.7-3.6,8-9.8,8c-2.9,0-5.5-0.7-7.4-1.8L147.7,690.7z"/>
	<path class="st0" d="M168.7,676.2c0-2.8-0.1-5-0.2-7.3h4.2l0.2,4.3h0.2c1.5-2.5,3.9-4.9,8.3-4.9c3.6,0,6.3,2.2,7.4,5.4h0.1
		c0.8-1.5,1.8-2.7,2.9-3.5c1.6-1.2,3.3-1.9,5.8-1.9c3.5,0,8.6,2.3,8.6,11.6v15.8h-4.7v-15.2c0-5.2-1.8-8.3-5.7-8.3
		c-2.7,0-4.8,2.1-5.7,4.4c-0.2,0.7-0.4,1.6-0.4,2.4v16.6h-4.7v-16.1c0-4.3-1.8-7.4-5.5-7.4c-3,0-5.2,2.4-5.9,4.9
		c-0.3,0.7-0.4,1.6-0.4,2.4v16.2h-4.7V676.2z"/>
	<path class="st0" d="M218.3,661.4c0.1,1.7-1.1,3-3,3c-1.7,0-2.9-1.3-2.9-3c0-1.7,1.3-3,3-3C217.2,658.3,218.3,659.6,218.3,661.4z
		 M213,695.7v-26.8h4.8v26.8H213z"/>
	<path class="st0" d="M243.3,694.7c-1.3,0.7-4,1.6-7.6,1.6c-7.9,0-13.1-5.5-13.1-13.7c0-8.3,5.5-14.2,14.1-14.2
		c2.8,0,5.3,0.7,6.6,1.4l-1.1,3.8c-1.1-0.7-2.9-1.3-5.5-1.3c-6,0-9.3,4.5-9.3,10.1c0,6.2,3.9,10,9.1,10c2.7,0,4.5-0.7,5.9-1.3
		L243.3,694.7z"/>
	<path class="st0" d="M258,688.3c2.2,1.3,5.4,2.4,8.9,2.4c4.3,0,6.7-2.1,6.7-5.1c0-2.8-1.8-4.5-6.5-6.2c-6-2.2-9.9-5.5-9.9-10.9
		c0-6.1,5-10.8,12.9-10.8c4,0,6.9,0.9,8.8,1.9l-1.6,5.5c-1.3-0.7-3.9-1.8-7.3-1.8c-4.2,0-6.1,2.3-6.1,4.5c0,2.9,2.1,4.2,7,6.2
		c6.4,2.4,9.5,5.7,9.5,11.1c0,6-4.5,11.2-13.9,11.2c-3.9,0-7.9-1.1-9.9-2.3L258,688.3z"/>
	<path class="st0" d="M304.7,694.7c-1.3,0.7-4,1.6-7.6,1.6c-7.9,0-13.1-5.5-13.1-13.7c0-8.3,5.5-14.2,14.1-14.2
		c2.8,0,5.3,0.7,6.6,1.4l-1.1,3.8c-1.1-0.7-2.9-1.3-5.5-1.3c-6,0-9.3,4.5-9.3,10.1c0,6.2,3.9,10,9.1,10c2.7,0,4.5-0.7,5.9-1.3
		L304.7,694.7z"/>
	<path class="st0" d="M314.5,661.4c0.1,1.7-1.1,3-3,3c-1.7,0-2.9-1.3-2.9-3c0-1.7,1.3-3,3-3C313.4,658.3,314.5,659.6,314.5,661.4z
		 M309.2,695.7v-26.8h4.8v26.8H309.2z"/>
	<path class="st0" d="M323.5,683.2c0.1,6.6,4.2,9.3,9,9.3c3.4,0,5.5-0.6,7.3-1.4l0.8,3.5c-1.7,0.8-4.6,1.7-8.7,1.7
		c-8.1,0-12.9-5.4-12.9-13.5c0-8.1,4.7-14.5,12.3-14.5c8.6,0,10.9,7.7,10.9,12.6c0,1-0.1,1.8-0.2,2.3H323.5z M337.5,679.7
		c0.1-3.1-1.2-7.9-6.6-7.9c-4.8,0-7,4.5-7.3,7.9H337.5z"/>
	<path class="st0" d="M347,676.2c0-2.8-0.1-5-0.2-7.3h4.2l0.3,4.4h0.1c1.3-2.5,4.3-5,8.7-5c3.6,0,9.3,2.2,9.3,11.4v16h-4.8v-15.5
		c0-4.3-1.6-7.9-6.1-7.9c-3.2,0-5.6,2.3-6.4,5c-0.2,0.6-0.3,1.4-0.3,2.3v16.1H347V676.2z"/>
	<path class="st0" d="M394.8,694.7c-1.3,0.7-4,1.6-7.6,1.6c-7.9,0-13.1-5.5-13.1-13.7c0-8.3,5.5-14.2,14.1-14.2
		c2.8,0,5.3,0.7,6.6,1.4l-1.1,3.8c-1.1-0.7-2.9-1.3-5.5-1.3c-6,0-9.3,4.5-9.3,10.1c0,6.2,3.9,10,9.1,10c2.7,0,4.5-0.7,5.9-1.3
		L394.8,694.7z"/>
	<path class="st0" d="M401.6,683.2c0.1,6.6,4.2,9.3,9,9.3c3.4,0,5.5-0.6,7.3-1.4l0.8,3.5c-1.7,0.8-4.6,1.7-8.7,1.7
		c-8.1,0-12.9-5.4-12.9-13.5c0-8.1,4.7-14.5,12.3-14.5c8.6,0,10.9,7.7,10.9,12.6c0,1-0.1,1.8-0.2,2.3H401.6z M415.6,679.7
		c0.1-3.1-1.3-7.9-6.6-7.9c-4.8,0-7,4.5-7.3,7.9H415.6z"/>
</g>
<g>
	<g>
		<path class="st0" d="M1265.6,292c-13.7-1.4-28.1-3.5-46.3-10.9c-14.3,6.5-27,9.5-40.5,10.9l-8.3-12.3c15.4-0.3,24.6-2.8,34.7-5.8
			c-4-2.7-5.1-3.5-9.2-6.9c-3.2,2.8-7.5,5.5-12.4,8.5l-9.7-8.2c11.2-5.4,20.3-12,25-18.4c-4.1-0.1-4.1-3.2-4.1-3.5v-13l13.3,1.1
			c0.8,0.1,1.1,0.3,1.6,0.7l3.1-2.7h-29.9l10.2,4.5c1.1,0.4,1.4,1.3,1.4,1.6c0,0.6-0.8,0.8-2.5,1.4c-3,6.2-5.1,9.5-7.6,12.7
			l-10.3-4.8c3.5-4.7,5.9-8.9,8-15.4h-8.6c-0.8,16.9-2,39.5-11,58.2l-15.7-3.7c1.8-4.2,5.4-11.7,7.6-22.6
			c3.5-16.5,4.4-33.3,4.4-45.9c0-11.3-0.8-26.5-2.1-42.5h46.3v-8l17.4,0.7c0.8,0,4.4,0.1,4.4,1.8c0,0.4-0.1,0.7-1.4,1.7
			c-1.4,1.3-1.4,1.6-1.4,3.8h52v12.1h-39.8v5.5h29.7v25h-89.9v4h100.7v23.3h-15.4v-13.4H1247c3.8,3.5,6.9,7.1,10.9,13l-9.3,6.2
			c-3.5-5.5-6.4-8.3-9.2-11c-1.1,5.9-2,10.2-10,10.2h-16c-1.3,2-1.8,2.5-2.7,3.5h37.6l3.5,4c-8.2,8.3-13.1,12.3-19.5,16.7
			c12.6,3.5,23.4,5.2,42.6,4.8L1265.6,292z M1189.9,187.2h-16.8c0.1,1.8,0.3,3.5,0.3,5.5h16.5V187.2z M1189.9,201.5h-16.4v7.5h16.4
			V201.5z M1219.3,187.2h-14.8v5.5h14.8V187.2z M1219.3,201.5h-14.8v7.5h14.8V201.5z M1207,262.3c2.5,1.7,5.6,3.7,11.4,6.5
			c4.5-2.3,6.8-3.7,10.6-6.5H1207z M1209.7,235.1c-0.3,0.4-0.8,0.8-1.3,1.1v2.7c0,1.8,2.7,2.4,4.5,2.4h4.5
			C1215.6,238.6,1212.8,236.6,1209.7,235.1z M1220.6,231.5c1.8,1.1,3.8,2.7,5.5,4.4l-6.5,5.4h4.5c3.2,0,3.2-2.7,3.2-6.2l10.3,2.8
			l7.2-6.4H1220.6z M1248,201.5h-14.1v7.5h14.1V201.5z"/>
		<path class="st0" d="M1355.4,189.3l12.3,5.1c0.7,0.3,2,0.7,2,1.8c0,1.4-2.3,1.6-4.4,2.4c-0.4,0.7-1.4,2.4-2.1,3.7h8.9
			c1.4-2.5,4.5-8.2,6.1-11.4l12.7,2.8c1.3,0.3,2.7,1,2.7,2c0,0.4-0.3,0.8-1.1,1.4c-1.3,0.6-1.6,1-4,5.2h23.7v9.6h-23v4.9h15.7v9.7
			h-15.7v4.5h15.7v9.6h-15.7v5.1h23.9v9.2h-42.8c5.1,2.7,10.4,7.1,13.3,9.7l-9.5,10.4c-4.7-4-9.5-7.3-13.7-9.9l8.5-10.3h-21.6v-28.2
			c-2.1,2.7-3.4,4.4-5.1,5.9l-7.8-6.6v32.3h-14.3v-33l-3.1,3.1l-2.1-2.1c-1.3,29.9-4,46.3-12.3,63.4l-15.8-7.3
			c2.7-4.1,5.2-7.8,8-18.9c2.4-9.7,4.5-27,4.5-46.2c0-16.7-1.3-33.9-1.8-41.2h48.3v-9.5l18.2,1.3c1.6,0.1,4.1,0.4,4.1,2
			c0,0.8-0.7,1.4-1.8,2.1c-1.3,0.6-1.8,1.1-1.8,1.8v2.3h49.1v13.3H1355.4z M1332.8,271.2c-0.6,1-4.5,8.2-10.3,16l-14.5-7.3
			c7.3-7.8,12.3-16.7,13.4-18.6l12.4,6.5c0.6,0.3,1.8,0.8,1.8,1.7S1334.5,270.6,1332.8,271.2z M1314.6,189.3
			c0.1,6.4,0.1,12.9,0.3,19.2c7.5-4.8,13.1-13.7,15.8-19.2H1314.6z M1335.2,189.3l7.2,5.4c0.7,0.4,2.5,2.7,2.5,3.7
			c0,1-1.6,0.8-3.4,1.3c-1.6,1.7-4,4.7-5.9,7.2c0.6,0.3,1.6,0.8,1.6,2c0,0.3,0,0.7-1,1.6c-1.4,1.1-1.8,2-1.8,3.1v4.9
			c2.8-2.5,4.2-3.8,9.6-11.3c7.5-10.7,8.6-14,9.9-17.8H1335.2z M1408.1,283.9c-4.1-5.2-6.9-8.2-9.6-10.7
			c-1.4,8.8-3.4,18.2-19.1,18.2h-27c-5.8,0-14.4-1.1-14.4-8.3v-21l13.4,0.3c0.8,0,4.4,0,4.4,1.8c0,0.4-0.1,0.8-1.1,1.4
			c-1.3,0.8-1.4,1.4-1.4,2.1v7.2c0,2.3,1,3.4,4.9,3.4h19.9c3.2,0,6.9-0.4,8.5-11l9.3,3.4c-2.4-2.3-3.8-3.5-6.4-5.6l11.7-9.2
			c7.6,5.4,15,13.6,18.8,18.8L1408.1,283.9z M1374.1,211.9h-13.6v4.9h13.6V211.9z M1374.1,226.2h-13.6v4.9h13.6V226.2z
			 M1374.1,240.7h-13.6v5.1h13.6V240.7z"/>
		<path class="st0" d="M1436.3,265.6c12.6-0.8,21-2.1,26.5-3v-7.5h-27.7v-12h27.7v-5.6c-14,2-19.8,2.4-23.7,2.5l-5.1-9.7
			c15.4-0.4,30.6-2.5,41.7-6.8h-40.8V212h52.2v-5.8h-34.7v-11.4h34.7v-5.2h-47.3v-10.7h24.6c-1.7-2.8-3-4.5-5.4-7.3l13-5.8
			c3.5,4.1,5.9,7.1,10,13.1h25.7c2.5-4.1,4.5-8,6.4-12.1l15.1,2.8c0.7,0.1,2.4,0.6,2.4,1.6c0,0.8-1.4,1.6-3,2.1
			c-0.3,0.3-1.4,2-3.7,5.6h26v10.7h-47v5.2h34.7v11.4H1504v5.8h53v11.4h-23.4c4.1,4.1,7.3,8,10.7,12.3l-8.9,6.5
			c-1.8-2.4-6.1-7.6-11.6-12.8l7.3-5.9h-41.4l4,6.5c0.1,0.3,0.4,0.8,0.4,1.3c0,0.6-0.1,1-1,1c-0.4,0-2.5-0.7-3-0.7
			s-9.9,2.3-11.7,2.7v8.9h24.3c-1-4.2-2.1-10-2.7-16.4l13.4,1c1,0.1,2.8,0.4,2.8,1.6c0,0.4-2.3,2.1-2.3,2.8c0,0.4,0.6,5.9,2,11h40.1
			v12h-22.3l8.6,6.8c0.7,0.6,1.3,1.6,1.3,2.1c0,0.6-0.4,1-1.1,1c-0.3,0-2-0.3-2.3-0.1c-0.7,0.4-7.3,4.8-8.3,5.5
			c4.2,4.2,7.6,4.9,8.8,4.9c2.8,0,3.5-4,4.7-11.2l11,7.1c-1.1,5.9-3.5,19.3-12.8,19.3c-11.6,0-20.5-9.2-23.9-12.7
			c-10.6,5.5-18.2,8.2-28.4,10.9l-8.2-10.7c7.5-2.1,15.5-4.7,28.5-10.9c-2.3-3.8-3.8-6.4-5.6-12h-27.5v5.4c4-0.7,12.6-2,19.2-3.5
			v9.9c-5.2,1.4-9,2.1-19.2,4v10.9c0,8.2-4.4,10.6-21.9,10.6l-5.8-12.8c2.1,0.1,6.5,0.3,7.8,0.3c2.7,0,4.4,0,4.4-3.2v-3
			c-2.8,0.4-19.1,2.8-20.2,3.1c-0.6,0.1-2.3,2-2.8,2c-1,0-1.4-1-1.6-2L1436.3,265.6z M1520.2,255.1c0.7,2.3,1.8,4,3.1,5.6
			c4.5-2.4,6.2-3.4,9.7-5.6H1520.2z"/>
		<path class="st0" d="M1686.1,262.7c-1.6,0-2.7-1-3.4-1.6v8.2h-37.3v6.2h51.5v11.9h-120.4v-11.9h51.4v-6.2h-36.4v-11.4h36.4V250
			l6.8,0.7l-6.8-4.2c3.4-1.7,5.9-3.2,9.6-6.9c-6.1,0.4-14.7,0.8-21.7,1.3v8c0,4.8-7.1,7.1-14.4,7.1h-4.9l-4-10.6
			c1,0.1,3.7,0.6,5.9,0.6c3.4,0,3.4-1.6,3.4-4.5c-2,0-13.8,0.6-17.4,0.6c-2.7,0-3.1,0-4,0.6c-0.4,0.4-1.4,1.1-2.3,1.1
			c-0.8,0-1.1-1.3-1.1-2.5l-0.1-8.6c12.4-0.1,17.5-0.3,24.9-0.3V229l4.2,0.1l4.8-3.2h-29.2v-8h51.5l3.5,5.2
			c-5.5,3.2-10.7,5.9-16.4,8.8c2.1,0,11.9-0.3,18.9-0.8v7.3c4.5-4.9,5.9-7.6,7.6-11.2c-3.4-3.2-6.6-6.2-11-9.3l10.7-9.5
			c1.7,1.3,3.8,3.1,4.7,3.8c0.7-3.4,1-5.2,1.4-8.9l-11.2,0.7l-0.7-14l12-0.8c-0.1-5.8-0.4-12.4-1.1-19.1l14.7,0.8c2,0.1,4,0.3,4,2
			c0,0.7-0.6,1.1-1.6,2c-0.7,0.6-1.4,1.1-1.8,1.7c0,0.7-0.1,10.3-0.1,11.6l21.2-1.4c-3.4,18.4-3.8,30.1-3.8,34.6
			c0,10.6,1.8,16.5,4,16.5c1.4,0,2.4-4.9,2.7-6.9l9.9,7.5C1696.6,253.4,1692.8,262.7,1686.1,262.7z M1577.3,187.6v-9.9h25.6v-9.6
			l16.8,1c1.4,0.1,2.5,0.3,2.5,1.4c0,0.7-0.4,1.1-1,1.7c-1.1,1.1-1.4,1.3-1.4,1.8v3.7h26.3v9.9H1577.3z M1584.2,213.3v-21.6h53.8
			v21.6H1584.2z M1623.4,200.2h-24.6v4.5h24.6V200.2z M1672,236l-9,9.7c-1.6-2.1-3.1-4.2-6.4-8c-4,6.4-6.9,9.7-11.6,13.8
			c1.1,0.1,3.4,0.4,3.4,2c0,0.8-1.1,1.7-1.6,2c-1.4,1-1.4,1.1-1.4,2.4h34.5C1675,250.9,1673.1,242.7,1672,236z M1670.7,221.1
			c0-6.1,0.4-13.1,0.8-19.2l-5.5,0.4c-0.8,10.2-1.7,14.5-3.4,20.9c4.4,4.7,6.6,7.2,8.9,10C1671.3,230.7,1670.7,226.6,1670.7,221.1z"
			/>
		<path class="st0" d="M1826.6,291.1c-28.4-17.4-38.4-30.2-48.3-52.4c-13.1,27.5-26.4,41.4-51,53.4l-13.8-12.4
			c32.6-13.1,45.6-31.9,52.8-61.6h-49v-15.3h50.7c0.6-6.2,0.6-13.4,0.6-15.5c0-8.2-0.3-14.3-0.6-18.8l18.8,1c1,0,2.4,0.1,2.4,1.7
			c0,1.1-1.4,2.4-2.7,3.5c-0.3,3-0.3,1.1-0.3,8.2c0,1.3-0.3,13.3-0.6,19.9h53.1v15.3h-51.7c8.6,27.1,19.6,42.8,54.1,59.4
			L1826.6,291.1z"/>
		<path class="st0" d="M1961.2,228.4v-16.9h-83.7v17.7h-15.3v-30.8h70c6.8-8.2,13-16.8,17.2-26.5l14,4.7c0.8,0.3,2.4,1.3,2.4,2.4
			c0,0.6-0.3,0.7-0.6,0.8c-0.4,0.4-3.5,1.1-4.1,1.7c-3,5.5-5.8,10-11,16.9h26.5v30.1H1961.2z M1928.1,258.5v21.3
			c0,9.9-8.2,12.3-16.8,12.3h-8.9l-6.2-15c1.7,0.1,9.6,0.8,11.3,0.8c2.4,0,3.4-2.1,3.4-4.2v-15.3h-48.7v-13.8h48.7v-8.8l6.8,1.1
			c3.1-2.7,4.2-4.2,5.4-5.9h-37.7V218h64l4,6.2c-6.4,5.8-17.5,15-25.1,20.5h47.9v13.8H1928.1z M1883.8,197.1
			c-3.4-6.9-6.6-12.1-12.1-18.8l13-7.9c4.7,5.4,8.8,10.7,12.6,18.2L1883.8,197.1z M1915.9,194.3c-3.5-7.2-7.2-13.1-13.1-20.3
			l12.8-7.6c6.6,7.8,10.6,14.3,13.8,20.8L1915.9,194.3z"/>
		<path class="st0" d="M2048.7,187.9c-1.8,0.4-1.8,0.4-3.1,2.8c-13.8,26-29.8,38.7-34.7,42.6l-15-10.3
			c17.1-10.6,30.1-28.8,36.4-47.3l16.9,8c1.1,0.6,1.7,1.6,1.7,2.1C2051,187.3,2049.7,187.8,2048.7,187.9z M2100.7,288
			c-2.1-4.7-3.4-7.2-5.9-12.3c-34.3,4.9-60.2,6.9-72.3,7.8c-2,0.1-3.2,0.3-4.2,1.6c-1.7,2.3-1.8,2.5-2.8,2.5c-1.4,0-2.1-1.6-2.5-3.4
			l-4.4-18.5c3.1,0.1,4.8,0.1,20.1-0.3c5.8-11.2,16-37.3,23.4-59.9l17.5,5.6c1.8,0.6,2.8,1.8,2.8,3c0,1.8-1,2.3-3.8,3.2
			c-1.4,0.4-1.6,1-3.5,5.4c-9.5,21.7-10.6,24.1-19.9,42.1c25-1.1,33-1.8,42.1-2.7c-4.1-7.9-8.5-14-17.8-24.6l13.1-9.2
			c19.6,22.3,29.1,41.8,33.6,51L2100.7,288z M2111.4,232.8c-18.9-12.8-31.2-29.7-36.4-47.7h-12.3v-14.3h26c0.1,4.4,0.6,13.3,10,26.7
			c9.7,13.8,20.9,20.5,25.6,23.3L2111.4,232.8z"/>
		<path class="st0" d="M2141.9,201.7v-12.3h47.9v12.3H2141.9z M2208,255c-0.1,0.8-3.1,15.5-8.6,26.3l-11.7-3v9h-13.6v-4.1h-15.5v5.8
			h-13.4v-44.5h42.5v29.2c0.7-1.7,6.2-14.8,8.5-26.1l12.4,3.8c0.8,0.3,1.6,0.7,1.6,1.7C2210.1,254.3,2208.7,254.7,2208,255z
			 M2147.2,182.8v-12h36.3v12H2147.2z M2147.2,219.2v-11.6h37.1v11.6H2147.2z M2147.2,237.6v-11.7h37.4v11.7H2147.2z M2174,257.4
			h-15.4v12.8h15.4V257.4z M2252.5,225c-4,6.2-11.4,6.5-18.5,6.2c1.8,1.6,5.4,4.5,7.6,7.1l-8.3,11c-2.7-2.4-3-2.5-5.1-4.4
			c-0.1,0.6-2.4,2.5-2.4,3.2v23.3c0,2.7,0.8,3.7,3.4,3.7h3.5c1.8,0,2.8-1.4,3.4-3c1.1-2.7,2.3-7.1,2.8-10.3l14.5,8.9
			c-4.8,15.3-7.8,18.4-13.7,18.4h-17.2c-7.2,0-12.1-4.4-12.1-11V242l14.7,0.6l0.6,0.1c-5.6-4.8-8.3-6.6-10.7-8.3l9.2-10.3
			c1.6,1,3.7,2.3,8.2,5.9l-3.5-12.8l-2.3,3.7c-3.4-2.1-5.8-3.5-8.6-4.9c-4.5,7.1-8.8,11.7-16.8,17.9l-11.3-10
			c9.5-6.8,12-9.7,15.1-14.4c-4-1.8-6.8-3.1-11.7-5.1l7.1-12.3c1.7,0.6,4.2,1.3,10.7,4c1-4.4,1.4-6.8,1.7-9.9h-18.5v-14h65.5
			C2259.8,173.1,2260.7,212.3,2252.5,225z M2227.2,186.1c-0.4,6.5-1.1,10.3-2.8,15.8c6.4,3.2,8.2,4.5,10.2,5.6l-5.2,8.5
			c2.1,0.4,4.1,0.4,6.1,0.4c2.8,0,4.5-0.3,5.6-5.8c1.1-5.9,2.3-15.8,2.7-24.6H2227.2z M2256,274.3c-4.2-10.4-10.3-20.5-13.8-25.6
			l11.3-6.6c4.9,5.9,11,15.8,14.4,24L2256,274.3z"/>
		<path class="st0" d="M2385.5,289.6v-4.9h-85.7v4.9h-16.5V171.8h119v117.8H2385.5z M2385.5,186.5h-85.7v83.7h85.7V186.5z
			 M2367.9,218.8v35c0,10.4-1.8,13.1-21.7,13.3l-4.8-14.7c2.7,0.4,6.2,0.8,7.6,0.8c3.1,0,4.1-1.6,4.1-4.4v-30.1h-48.6v-14.7h48.6
			v-14.8l16.1,1.6c0.7,0,1.6,0.6,1.6,1.3c0,0.4-0.4,1-0.8,1.3c-1.6,1.3-2,1.6-2,2.8v7.9h14.4v14.7H2367.9z M2328.2,252.6
			c-2.1-4-6.1-11.3-14.1-20.1l12-8.5c6.8,7.3,11,13.7,14.5,20.3L2328.2,252.6z"/>
		<path class="st0" d="M2537.2,266c-13-12.7-20.1-21.9-28.4-36v24h14.5v14.1h-14.5v21.3h-15.3v-21.3h-14V254h14v-26.1
			c-8.8,16.1-15.3,25.1-28.2,38.3l-14.5-7.3V289h-15.4v-64.5c-2.7,4.1-5.1,6.6-6.4,8l-12.4-8.8c8.6-10.2,21.9-27.3,31.8-53.8
			l14.4,4.4c2.3,0.7,3.2,1.4,3.2,2.5c0,1-0.8,1.3-1.1,1.4c-2.8,0.8-3.1,1-3.5,2c-3.5,7.3-4.8,9.9-9.5,17.9c1.4,0.8,2.7,1.7,2.7,3.1
			c0,1-0.7,1.7-1.3,2.3c-2.1,1.6-2.5,1.8-2.5,2.5v52.1c15.7-12,27.5-31.6,35.6-51.1h-25.3v-13.7h32.5v-24.1l15.5,0.7
			c0.7,0,2.7,0.1,2.7,1.7c0,0.4-0.3,1.1-1,1.7c-1.7,1.3-2,1.6-2,2.4v17.7h36.1v13.7h-31.6c6.8,15,15.8,32.2,36.7,48.4L2537.2,266z"
			/>
	</g>
	<g>
		<path class="st0" d="M1306.8,529.5v64.3c0,18.4-11.9,25.7-62.2,26l-12.6-38.9c5.2,0.6,11.9,1.2,20.5,1.2
			c12.6,0,15.9-2.8,15.9-10.7v-42h-112.7V497h112.7v-28.5H1207v-32.8H1368v32.8h-61.2V497h110.8v32.5H1306.8z M1379.4,452.9v-40.1
			h-185v41.6h-34.9V380h107.8v-29.7l32.5,0.3c12.9,0,14.4,2.1,14.4,5.2c0,1.8-0.6,2.5-1.8,3.4c-5.2,4-5.8,4.6-5.8,7.3V380H1414v72.9
			H1379.4z"/>
		<path class="st0" d="M1688.3,447.4v-40.1h-190.2v41h-34.9v-69.8h110.8v-26.6l35.2,1.2c2.1,0,9.5,0.3,9.5,3.4
			c0,2.4-3.1,3.7-6.7,7.7v14.4h110.8v68.9H1688.3z M1664.1,616.4V606h-142.4V618h-35.5V456h88.8v-38.9l32.8,1.2c2.1,0,8.3,0.3,8.3,4
			c0,3.1-2.8,4.6-5.8,8V456h90.6v160.5H1664.1z M1575,485.1h-53.3V516h53.3V485.1z M1575,544.8h-53.3v32.5h53.3V544.8z
			 M1664.1,485.1h-53.9V516h53.9V485.1z M1664.1,544.8h-53.9v32.5h53.9V544.8z"/>
		<path class="st0" d="M2005.9,535.3v79.9h-34.3V542l-93.1,18.4l-6.7-29.4c-10.1-6.4-15.3-11.3-21.4-18.4v102.6h-35.2V539
			c-5.8,9.8-11.9,20.5-19.6,29.1l-28.5-19c26.6-38,35.5-58.5,43.5-88.2h-42.6V429h47.2v-25.7c-15.9,3.4-25.7,4.6-38.3,5.8
			l-13.2-30.3c11.6,1.2,60-1.2,103.5-25.4l21.7,23.3c1.2,1.2,2.5,3.1,2.5,5.5c0,2.1-2.1,2.4-3.7,2.4c-1.2,0-6.7-0.6-8-0.6
			c-2.1,0-3.1,0.3-5.8,1.5c-4.3,1.8-12.2,4.9-23.6,8.6V429h40.4v31.8h-40.4v3.7c15.6,22.4,30,31.8,44.7,39.5l-19,23.6l95.5-19.3
			V351.9l32.5,2.1c4,0.3,7.7,1.2,7.7,4.9c0,1.8-0.9,2.5-1.8,3.1c-3.4,2.8-4,3.4-4,4.9v134.7l27.3-5.5l5.5,32.8L2005.9,535.3z
			 M1934.5,501c-8.9-8.9-23.6-22.7-43.8-33.7l21.4-26.6c19,10.7,32.8,22.7,45.3,35.2L1934.5,501z M1941.9,438.2
			c-8.6-8.3-23.9-23.3-44.1-35.8l23-25.7c16.8,10.1,30.9,21.1,45.6,38.3L1941.9,438.2z"/>
		<path class="st0" d="M2296.2,482.6v-36.7h-181.6v38.3h-33.1v-66.8h151.9c14.7-17.8,28.2-36.4,37.4-57.6l30.3,10.1
			c1.8,0.6,5.2,2.8,5.2,5.2c0,1.2-0.6,1.5-1.2,1.8c-0.9,0.9-7.7,2.5-8.9,3.7c-6.4,11.9-12.6,21.7-23.9,36.7h57.6v65.2H2296.2z
			 M2224.5,547.8v46.2c0,21.4-17.8,26.6-36.4,26.6h-19.3l-13.5-32.5c3.7,0.3,20.8,1.8,24.5,1.8c5.2,0,7.3-4.6,7.3-9.2v-33.1h-105.6
			v-30h105.6v-19l14.7,2.5c6.7-5.8,9.2-9.2,11.6-12.9h-81.8V460h138.7l8.6,13.5c-13.8,12.6-38,32.5-54.5,44.4h103.8v30H2224.5z
			 M2128.3,414.6c-7.3-15-14.4-26.3-26.3-40.7l28.2-17.1c10.1,11.6,19,23.3,27.3,39.5L2128.3,414.6z M2197.9,408.5
			c-7.7-15.6-15.6-28.5-28.5-44.1l27.9-16.5c14.4,16.8,23,30.9,30,45L2197.9,408.5z"/>
		<path class="st0" d="M2415.3,531.9c-3.1,32.2-8.3,49.3-11.9,60l-26.9-5.8c7.3-23.6,11.3-42.9,14.1-67.4l24.5,5.5
			c5.2,1.2,5.2,3.1,5.2,3.4C2420.2,529.2,2418,530.4,2415.3,531.9z M2468.9,501.9c-0.9-3.7-0.9-4.3-2.8-9.5
			c-4.6,1.2-7.3,1.8-12.2,2.8v119.7h-29.1V500.7c-3.1,0.3-13.8,2.1-26.9,4c-2.8,0.3-4.9,0.6-6.4,2.8c-2.4,2.8-2.4,2.8-4,2.8
			c-1.8,0-3.1-1.5-3.4-2.8l-3.7-34c8.3,0,11,0,26.3-0.9c5.5-8.3,11.9-19,14.4-23c-15.9-13.5-27.3-21.1-42.6-30.6l16.8-26.9
			c4.9,2.8,5.8,3.4,11.6,7.3c11-16.8,18.4-31.8,24.5-46.5l27.3,11.9c1.2,0.6,2.4,1.5,2.4,3.1c0,1.5-1.2,2.8-2.4,3.1
			c-4.6,1.2-4.9,1.2-6.4,4c-4.9,9.5-15.6,26-24.8,38.9c4.3,3.4,6.1,5.2,9.5,8.3c13.5-23.9,17.5-32.8,20.2-38.3l31.5,13.5
			c1.5,0.6,2.5,2.5,2.5,3.4c0,1.8-1.5,2.4-3.1,3.1c-3.7,0.9-4,0.9-6.1,2.5c-2.8,3.4-10.7,16.2-15,23c-14.7,23.3-20.2,30.3-29.4,42.3
			c17.5-1.8,19.3-1.8,21.4-2.1c-2.1-6.4-3.7-9.5-5.8-14.7l23.3-9.2c10.7,20.2,15.9,39.5,18.1,49.6L2468.9,501.9z M2525.8,537.4
			c-2.4,0.9-2.8,1.2-3.4,3.7c-3.4,16.5-9.2,37.1-19.6,59.1l-25.7-12.6c3.7-7,6.7-13.5,11.6-26.3l-15,3.7
			c-4.3-13.8-8.6-29.4-11.9-52.7l23.9-4.6c3.1,19,7.3,29.1,9.2,33.7c0.9-3.7,2.8-10.1,4-16.8l25.4,6.7c1.5,0.3,3.7,1.8,3.7,3.7
			C2528,535.9,2527,537.1,2525.8,537.4z M2554,377.3c-4.6,1.2-5.8,1.5-7.7,4.6c-16.5,26.6-22.4,36.7-38.9,55.7l-26.3-17.8
			c16.8-17.5,28.2-31.2,43.2-63.4l29.4,13.2c1.8,0.9,3.4,2.1,3.4,4.3C2557,375.4,2556.4,376.7,2554,377.3z M2616.8,504
			c-3.7-8-6.1-12.9-11-20.8c-10.7,1.5-27.3,4-44.1,6.1c-7.3,0.9-43.5,4.3-46.9,5.5c-0.9,0.3-5.2,4-6.4,4c-0.3,0-2.1,0-2.8-2.8
			l-6.1-32.8h23c13.5-24.8,22-50.8,27.3-67.7l33.4,10.7c2.1,0.6,4.3,2.5,4.3,4.6c0,3.1-3.1,4.3-4.3,4.6c-5.5,2.1-6.1,2.5-7.3,5.5
			c-8.9,19-12.6,26.9-20.5,41c8.6-0.3,19.6-0.6,34.9-2.1c-5.8-7.3-8.3-9.8-12.2-13.5l22-18.1c19.6,18.7,36.7,42.9,43.8,59.4
			L2616.8,504z M2578.8,612.8h-29.7c-14.1,0-19.6-10.1-19.6-23v-72.9l30.3,2.1c1.5,0,3.1,0.6,3.1,2.8s-1.5,3.1-4.6,6.4V576
			c0,4.6,2.1,6.7,7.3,6.7h7.7c6.4,0,8.6-5.2,11-25.1l25.7,12.6C2609.1,578.2,2605.4,612.8,2578.8,612.8z M2580.6,538.7
			c-7.3-11-15.9-20.8-25.7-29.4l17.8-19.9c8.6,6.7,18.1,15,28.5,30.6L2580.6,538.7z M2622.9,428.4c-13.2-12.9-26.9-29.1-42.3-55.1
			l25.1-15.6c12.6,22.7,23.3,36.4,42.9,54.2L2622.9,428.4z M2624.7,589.8c-9.2-29.1-19.6-45.9-23.3-52.4l25.7-15
			c12.2,19.3,19.3,34,23.6,52.7L2624.7,589.8z"/>
		<path class="st0" d="M2936.4,479.2c-19.3-8-34.9-15.6-57.9-31.5v24.8h-123.1v-19c-27.6,19.9-43.8,26.9-54.5,31.8l-25.7-26
			c38.9-17.5,94.9-50.8,126.8-109.6l35.8,7c2.8,0.6,4.3,2.5,4.3,3.4c0,1.2-2.8,3.7-4.6,4.9c7,9.5,20.2,28.2,48.4,48.1
			c32.5,22.7,61.9,31.2,76.9,35.5L2936.4,479.2z M2873.7,614v-9.2h-110.8v10.4h-33.4V496.4h178.8V614H2873.7z M2873.7,526.4h-110.8
			v46.9h110.8V526.4z M2817.3,390.4c-7,10.4-17.8,26.3-45.9,50.8h98.3C2854.4,429,2838.8,416.2,2817.3,390.4z"/>
		<path class="st0" d="M3071.5,390.7c-4.3,26-8.3,41.3-15,61.5h53.9v126.2h-57v32.2h-30.6v-91.6c-7,9.5-11.6,14.4-18.4,20.8
			l-28.5-20.8c38.3-37.4,55.1-72.6,61.9-128.3h-42v-30.9h120.6v30.9H3071.5z M3081.6,482.6h-28.2v66.1h28.2V482.6z M3230.4,485.1
			v130.4h-32.8V485.1h-24.5c-1.5,25.7-3.1,52.4-14.1,81.8c-10.4,27.9-23.6,40.4-35.8,52.1l-29.4-19.9c13.5-11,23.6-19,32.5-36.4
			c13.2-25.4,14.7-53,15.9-77.5h-24.5v-30.3h24.5v-64.3h-15v-29.7h124.9v29.7h-21.7v64.3h25.1v30.3H3230.4z M3197.6,390.4h-22v64.3
			h22V390.4z"/>
		<path class="st0" d="M3527.1,614.9H3487c-15.3,0-28.8-5.8-28.8-22.7c0-5.8,6.7-64,7.7-72l-35.8,0.9
			c-12.2,44.7-51.1,81.8-112.1,96.2l-26.9-34c61.2-6.7,94.3-34.9,102-60.9l-79,2.1v-33.1l85.1-2.1c0.3-5.2,0.9-14.7,0.6-31.5
			l34.6,1.5v-9.8v-48.4h-43.5l25.1,11.3c2.4,1.2,3.7,2.1,3.7,3.7c0,0.9-0.6,2.5-1.5,3.1c-0.9,0.6-6.7,2.4-7.7,3.4
			c-18.7,32.8-38,47.5-73.2,59.7l-22-27.9c13.2-3.1,30-7,46.5-22.7c13.2-12.2,16.2-22.4,19-30.6h-42.9v34.9h-33.4v-66.1h106v-17.8
			l41,2.4c0.6,0,5.8,0.3,5.8,3.7c0,0.9-0.3,1.5-0.9,2.1s-5.5,3.7-5.5,4.6v4.9h106.3v63.7h-21.4c-8.6,34-17.1,39.5-37.7,39.5h-48.7
			c-3.7,0-7.7-0.6-11.3-3.1c-0.6,8-0.9,12.2-1.8,18.4l69.5-2.1c-6.1,42.9-9.8,81.1-9.8,82.7c0,10.1,7.3,10.7,8.9,10.7h14.4
			c10.1,0,11.3-8.6,14.4-28.5l32.8,13.2C3560.5,598.1,3554.1,614.9,3527.1,614.9z M3523.5,401.2h-55.1v33.7c0,4.6,2.8,7.7,8.3,7.7
			h14.4c7.3,0,9.5-7,13.5-19.9l19,6.1V401.2z"/>
		<path class="st0" d="M3848,465.2c-15.6-5.2-26-11-35.2-16.2v26h-147.6v-25.1c-15.6,9.5-24.8,14.1-38.3,19.9l-23.3-26.9
			c52.1-20.5,83.9-49,111.8-93.4l43.8,7.7c2.4,0.3,4.6,1.8,4.6,4c0,1.8-1.2,3.4-2.8,4c15,17.1,32.5,31.8,51.8,43.8
			c10.7,6.4,35.2,19.9,59.4,26.9L3848,465.2z M3827.8,618.3c-3.1-4.6-6.7-11.3-20.2-27.3c-42,5.2-110.8,12.9-119.7,13.8
			c-6.4,0.6-38.9,3.4-46.2,4.6c-1.5,0.3-2.5,0.9-3.1,2.1c-1.8,3.7-2.8,4.6-3.7,4.6c-0.9,0-2.4-1.2-2.8-2.8l-9.8-40.1
			c19.3,0,27.9-0.3,43.2-0.9c7.7-12.2,14.1-23,27.9-49.3h-69.5v-29.7H3849V523h-64.6c26.3,20.8,53.3,49,71.3,72.3L3827.8,618.3z
			 M3736.9,384.6c-22,26.9-38.3,42-63.4,60h131.7C3779.1,427.5,3761.1,413.4,3736.9,384.6z M3758.9,545.4l22-22.4H3735
			c-14.4,25.4-23.3,38.9-28.8,47.2c25.7-1.2,51.1-2.8,76.6-5.8C3778.5,560.4,3771.2,553.7,3758.9,545.4z"/>
	</g>
</g>
</svg>
